{"title":"The.Revenant.2015.DVDSCR.XviD.AC3-VAiN","uid":13047105,"size":1356131246,"categoryP":"video","categoryS":"movies","magnet":"?xt=urn:btih:102f81aa3f5f4d018c4b9b77f7c262bf30c95c14&amp;dn=The.Revenant.2015.DVDSCR.XviD.AC3-VAiN&amp;tr=udp%3A%2F%2Ftracker.leechers-paradise.org%3A6969&amp;tr=udp%3A%2F%2Fzer0day.ch%3A1337&amp;tr=udp%3A%2F%2Fopen.demonii.com%3A1337&amp;tr=udp%3A%2F%2Ftracker.coppersurfer.tk%3A6969&amp;tr=udp%3A%2F%2Fexodus.desync.com%3A6969","seeders":1,"leechers":0,"uploader":"TvTeam","files":4,"time":1450575876,"description":"------------------------------------------------------------------------\r\n\r  https://www.torrenting.com\r\n\r\nSign up is OPEN - for time being. Come and have fun.\r\n\r\n------------------------------------------------------------------------[img]http://i.imgur.com/FJi0aRt.png[/img] \n\n[b]P R E S E N T S . . . .[/b] \n\nThe.Revenant.2015.DVDSCR.XviD.AC3-VAiN\n\niMDB........: http://www.imdb.com/title/tt1663202/\n\nPLOT........: In the 1820s, a frontiersman named Hugh Glass sets out on a path of vengeance against those who left him for dead after a bear mauling.\n\nT E C H N i C A L . i N F O . . .\n\nBasic Information\nFormat                      : AVI\nFormat/Info                 : Audio Video Interleave\nFormat profile              : OpenDML\nFile size                   : 2.36 GiB\nDuration                    : 2h 36mn\nOverall bit rate            : 2 158 Kbps\nWriting application         : VirtualDubMod 1.5.10.2 (build 2540/release)\nWriting library             : VirtualDubMod build 2540/release\n\nVideo\nID                          : 0\nFormat                      : MPEG-4 Visual\nFormat profile              : Advanced   \nFormat settings, BVOP       : 3\nFormat settings, QPel       : No\nFormat settings, GMC        : No warppoints\nFormat settings, Matrix     : Default (H.263)\nCodec ID                    : XVID\nCodec ID/Hint               : XviD\nDuration                    : 2h 36mn\nBit rate                    : 1 699 Kbps\nWidth                       : 720 pixels\nHeight                      : 304 pixels\nDisplay aspect ratio        : 2.35:1\nFrame rate                  : 23.976 (24000/1001) fps\nColor space                 : YUV\nChroma subsampling          : 4:2:0\nBit depth                   : 8 bits\nScan type                   : Progressive\nCompression mode            : Lossy\nBits/(Pixel*Frame)          : 0.324\nStream size                 : 1.86 GiB (79%)\nWriting library             : XviD 67\n\nAudio\nID                          : 1\nFormat                      : AC-3\nFormat/Info                 : Audio Coding 3\nMode extension              : CM (complete main)\nFormat settings, Endianness : Big\nCodec ID                    : 2000\nDuration                    : 2h 36mn\nBit rate mode               : Constant\nBit rate                    : 448 Kbps\nChannel(s)                  : 6 channels\nChannel positions           : Front: L C R, Side: L R, LFE\nSampling rate               : 48.0 KHz\nFrame rate                  : 31.250 fps (1536 spf)\nCompression mode            : Lossy\nStream size                 : 501 MiB (21%)\nAlignment                   : Split accross interleaves\nInterleave, duration        : 42 ms (1.00 video frame)\nInterleave, preload duratio : 500 ms\n\n\n\n\n\nE N C O D E R S . N O T E S . . .       \n\nSOURCE......: ViDEO...DVDSCR\n............: AUDiO...DVDSCR\nSAMPLE......: Yippers \nADDED NOTE..: ripped.... \n\n\n\nS C R E E N . S H O T S . . .\n\n[img]http://i.imgur.com/VhRpGqw.png[/img]\n\n[img]http://i.imgur.com/B6sgMUs.png[/img]\n\n[img]http://i.imgur.com/XBAPlHK.png[/img]\n\n[img]http://i.imgur.com/NtEwDJM.png[/img]\n\n\n\nGREETZ:\n\nHive-CM8 | Rx | REFiLL | JEDI | TW34K | 26k | Unevano | EsX | TOFFEE\nGH0ST | ViSiON | The INTERWEBZ | Adam007 | STARLETS | GUSH | A.C.A.B. | jamie111 | TED | R3V\n\n\nCheer's to our wives n girlfriends... may they neva meet :shifty","torrent":{"xt":"urn:btih:102f81aa3f5f4d018c4b9b77f7c262bf30c95c14","amp;dn":"The.Revenant.2015.DVDSCR.XviD.AC3-VAiN","amp;tr":["udp%3A%2F%2Ftracker.leechers-paradise.org%3A6969","udp%3A%2F%2Fzer0day.ch%3A1337","udp%3A%2F%2Fopen.demonii.com%3A1337","udp%3A%2F%2Ftracker.coppersurfer.tk%3A6969","udp%3A%2F%2Fexodus.desync.com%3A6969"],"infoHash":"102f81aa3f5f4d018c4b9b77f7c262bf30c95c14","infoHashBuffer":{"type":"Buffer","data":[16,47,129,170,63,95,77,1,140,75,155,119,247,194,98,191,48,201,92,20]},"announce":[],"urlList":[]}}